{"title":"Ghost Adventures - S04E11 - Amargosa Opera House.[tNe.XViD].avi","uid":5991208,"size":365924468,"categoryP":"video","categoryS":"tv_shows","magnet":"?xt=urn:btih:56d4674c618a7b506a8eab29d64b027702bbd00c&amp;dn=Ghost+Adventures+-+S04E11+-+Amargosa+Opera+House.%5BtNe.XViD%5D.avi&amp;tr=udp%3A%2F%2Ftracker.openbittorrent.com%3A80&amp;tr=udp%3A%2F%2Fopen.demonii.com%3A1337&amp;tr=udp%3A%2F%2Ftracker.coppersurfer.tk%3A6969&amp;tr=udp%3A%2F%2Fexodus.desync.com%3A6969","seeders":1,"leechers":0,"uploader":"trialNerror","files":1,"time":1290895018,"description":"Format                           : AVI\nFormat/Info                      : Audio Video Interleave\nFile size                        : 349 MiB\nDuration                         : 41mn 59s\nOverall bit rate                 : 1 162 Kbps\nWriting application              : Lavf52.64.2\nWriting library                  : VirtualDub build 32839/release\n\nVideo\nID                               : 0\nFormat                           : MPEG-4 Visual\nFormat profile                   : Advanced Simple@L5\nFormat settings, BVOP            : Yes\nFormat settings, QPel            : No\nFormat settings, GMC             : No warppoints\nFormat settings, Matrix          : Default (H.263)\nCodec ID                         : XVID\nCodec ID/Hint                    : XviD\nDuration                         : 41mn 59s\nBit rate                         : 1 045 Kbps\nWidth                            : 624 pixels\nHeight                           : 352 pixels\nDisplay aspect ratio             : 16:9\nFrame rate                       : 29.970 fps\nColor space                      : YUV\nChroma subsampling               : 4:2:0\nBit depth                        : 8 bits\nScan type                        : Progressive\nBits/(Pixel*Frame)               : 0.159\nStream size                      : 314 MiB (90%)\nWriting library                  : XviD 1.2.1 (UTC 2008-12-04)\n\nAudio\nID                               : 1\nFormat                           : MPEG Audio\nFormat version                   : Version 1\nFormat profile                   : Layer 3\nMode                             : Joint stereo\nMode extension                   : MS Stereo\nCodec ID                         : 55\nCodec ID/Hint                    : MP3\nDuration                         : 41mn 59s\nBit rate mode                    : Variable\nNominal bit rate                 : 128 Kbps\nChannel(s)                       : 2 channels\nSampling rate                    : 48.0 KHz\nStream size                      : 30.9 MiB (9%)\nAlignment                        : Aligned on interleaves\nInterleave, duration             : 24 ms (0.72 video frame)\nInterleave, preload duration     : 528 ms\nWriting library                  : LAME3.98r","torrent":{"xt":"urn:btih:56d4674c618a7b506a8eab29d64b027702bbd00c","amp;dn":"Ghost+Adventures+-+S04E11+-+Amargosa+Opera+House.%5BtNe.XViD%5D.avi","amp;tr":["udp%3A%2F%2Ftracker.openbittorrent.com%3A80","udp%3A%2F%2Fopen.demonii.com%3A1337","udp%3A%2F%2Ftracker.coppersurfer.tk%3A6969","udp%3A%2F%2Fexodus.desync.com%3A6969"],"infoHash":"56d4674c618a7b506a8eab29d64b027702bbd00c","infoHashBuffer":{"type":"Buffer","data":[86,212,103,76,97,138,123,80,106,142,171,41,214,75,2,119,2,187,208,12]},"announce":[],"urlList":[]}}